<mxfile host="app.diagrams.net" modified="2023-04-11T22:25:41.140Z" agent="Mozilla/5.0 (Windows NT 10.0; Win64; x64) AppleWebKit/537.36 (KHTML, like Gecko) Chrome/112.0.0.0 Safari/537.36 Edg/112.0.1722.34" etag="a6ZMoXdeIvesBwR4Ee76" version="21.1.6" type="github">
  <diagram name="Página-1" id="384RNy8xycjuMhjqXKzM">
    <mxGraphModel dx="1377" dy="796" grid="1" gridSize="10" guides="1" tooltips="1" connect="1" arrows="1" fold="1" page="1" pageScale="1" pageWidth="827" pageHeight="1169" math="0" shadow="0">
      <root>
        <mxCell id="0" />
        <mxCell id="1" parent="0" />
        <mxCell id="flSsCYXYwXLomDibyD00-1" value="clube" style="shape=umlActor;html=1;verticalLabelPosition=bottom;verticalAlign=top;align=center;" parent="1" vertex="1">
          <mxGeometry x="640" y="480" width="90" height="130" as="geometry" />
        </mxCell>
        <mxCell id="flSsCYXYwXLomDibyD00-2" value="Apresentar solicitação de entrada no clube" style="ellipse;whiteSpace=wrap;html=1;" parent="1" vertex="1">
          <mxGeometry x="240" y="200" width="140" height="70" as="geometry" />
        </mxCell>
        <mxCell id="flSsCYXYwXLomDibyD00-3" value="" style="edgeStyle=none;html=1;endArrow=none;verticalAlign=bottom;rounded=0;" parent="1" target="flSsCYXYwXLomDibyD00-2" edge="1">
          <mxGeometry width="160" relative="1" as="geometry">
            <mxPoint x="170" y="360" as="sourcePoint" />
            <mxPoint x="330" y="360" as="targetPoint" />
          </mxGeometry>
        </mxCell>
        <mxCell id="flSsCYXYwXLomDibyD00-4" value="Manter mensalidade" style="ellipse;whiteSpace=wrap;html=1;" parent="1" vertex="1">
          <mxGeometry x="360" y="320" width="140" height="70" as="geometry" />
        </mxCell>
        <mxCell id="flSsCYXYwXLomDibyD00-5" value="" style="edgeStyle=none;html=1;endArrow=none;verticalAlign=bottom;rounded=0;entryX=0;entryY=0.5;entryDx=0;entryDy=0;" parent="1" target="flSsCYXYwXLomDibyD00-4" edge="1">
          <mxGeometry width="160" relative="1" as="geometry">
            <mxPoint x="180" y="390" as="sourcePoint" />
            <mxPoint x="286" y="276" as="targetPoint" />
          </mxGeometry>
        </mxCell>
        <mxCell id="WLbWPHq3U6ojiMqZ5sju-1" value="Manter dependentes" style="ellipse;whiteSpace=wrap;html=1;" vertex="1" parent="1">
          <mxGeometry x="360" y="460" width="140" height="70" as="geometry" />
        </mxCell>
        <mxCell id="WLbWPHq3U6ojiMqZ5sju-2" value="" style="edgeStyle=none;html=1;endArrow=none;verticalAlign=bottom;rounded=0;entryX=0;entryY=0;entryDx=0;entryDy=0;" edge="1" parent="1" target="WLbWPHq3U6ojiMqZ5sju-1">
          <mxGeometry width="160" relative="1" as="geometry">
            <mxPoint x="180" y="440" as="sourcePoint" />
            <mxPoint x="320" y="435" as="targetPoint" />
          </mxGeometry>
        </mxCell>
        <mxCell id="WLbWPHq3U6ojiMqZ5sju-3" value="membro do clube" style="shape=umlActor;html=1;verticalLabelPosition=bottom;verticalAlign=top;align=center;" vertex="1" parent="1">
          <mxGeometry x="90" y="330" width="90" height="130" as="geometry" />
        </mxCell>
        <mxCell id="WLbWPHq3U6ojiMqZ5sju-4" value="" style="edgeStyle=none;html=1;endArrow=none;verticalAlign=bottom;rounded=0;" edge="1" parent="1">
          <mxGeometry width="160" relative="1" as="geometry">
            <mxPoint x="500" y="360" as="sourcePoint" />
            <mxPoint x="660" y="470" as="targetPoint" />
          </mxGeometry>
        </mxCell>
        <mxCell id="WLbWPHq3U6ojiMqZ5sju-5" value="Avaliar solicitações" style="ellipse;whiteSpace=wrap;html=1;" vertex="1" parent="1">
          <mxGeometry x="500" y="270" width="140" height="70" as="geometry" />
        </mxCell>
        <mxCell id="WLbWPHq3U6ojiMqZ5sju-6" value="" style="edgeStyle=none;html=1;endArrow=none;verticalAlign=bottom;rounded=0;exitX=0.5;exitY=1;exitDx=0;exitDy=0;" edge="1" parent="1" source="WLbWPHq3U6ojiMqZ5sju-5">
          <mxGeometry width="160" relative="1" as="geometry">
            <mxPoint x="620" y="340" as="sourcePoint" />
            <mxPoint x="680" y="460" as="targetPoint" />
          </mxGeometry>
        </mxCell>
        <mxCell id="WLbWPHq3U6ojiMqZ5sju-8" value="" style="edgeStyle=none;html=1;endArrow=none;verticalAlign=bottom;rounded=0;" edge="1" parent="1">
          <mxGeometry width="160" relative="1" as="geometry">
            <mxPoint x="500" y="500" as="sourcePoint" />
            <mxPoint x="630" y="520" as="targetPoint" />
          </mxGeometry>
        </mxCell>
        <mxCell id="WLbWPHq3U6ojiMqZ5sju-10" value="Cadastrar novos membros" style="ellipse;whiteSpace=wrap;html=1;" vertex="1" parent="1">
          <mxGeometry x="660" y="320" width="140" height="70" as="geometry" />
        </mxCell>
        <mxCell id="WLbWPHq3U6ojiMqZ5sju-11" value="" style="edgeStyle=none;html=1;endArrow=none;verticalAlign=bottom;rounded=0;" edge="1" parent="1">
          <mxGeometry width="160" relative="1" as="geometry">
            <mxPoint x="730" y="390" as="sourcePoint" />
            <mxPoint x="700" y="460" as="targetPoint" />
          </mxGeometry>
        </mxCell>
      </root>
    </mxGraphModel>
  </diagram>
</mxfile>
